HIERARCHY
ROOT Hips
{
	OFFSET 0.000000 83.214638 0.000000
	CHANNELS 6 Xposition Yposition Zposition Xrotation Yrotation Zrotation
	JOINT Pelvis
	{
		OFFSET 0.000000 0.000000 0.000000
		CHANNELS 3 Xrotation Yrotation Zrotation
		JOINT LeftUpLeg
		{
			OFFSET 8.479700 -4.795502 -0.379100
			CHANNELS 3 Xrotation Yrotation Zrotation
			JOINT LeftLeg
			{
				OFFSET 0.024144 -32.555107 0.112900
				CHANNELS 3 Xrotation Yrotation Zrotation
				JOINT LeftFoot
				{
					OFFSET -0.024144 -32.638630 -3.012600
					CHANNELS 3 Xrotation Yrotation Zrotation
					JOINT LeftToeBase
					{
						OFFSET 0.970200 -13.225400 11.864200
						CHANNELS 3 Xrotation Yrotation Zrotation
						End Site
						{
							OFFSET 0.000000 12.319262 0.000000
						}
					}
					JOINT LFootTongue
					{
						OFFSET 1.142400 -1.059800 6.665200
						CHANNELS 3 Xrotation Yrotation Zrotation
						End Site
						{
							OFFSET 0.000000 12.319262 0.000000
						}
					}
				}
				JOINT LeftPantLeg
				{
					OFFSET 0.918482 -16.533964 -2.284700
					CHANNELS 3 Xrotation Yrotation Zrotation
					End Site
					{
						OFFSET 0.350399 24.744368 0.000000
					}
				}
			}
		}
		JOINT RightUpLeg
		{
			OFFSET -8.479700 -4.795502 -0.379100
			CHANNELS 3 Xrotation Yrotation Zrotation
			JOINT RightLeg
			{
				OFFSET -0.023144 -32.555092 0.112900
				CHANNELS 3 Xrotation Yrotation Zrotation
				JOINT RightFoot
				{
					OFFSET 0.023144 -32.638641 -3.012700
					CHANNELS 3 Xrotation Yrotation Zrotation
					JOINT RightToeBase
					{
						OFFSET -0.970200 -13.225400 11.864200
						CHANNELS 3 Xrotation Yrotation Zrotation
						End Site
						{
							OFFSET 0.000000 12.319244 0.000000
						}
					}
					JOINT RFootTongue
					{
						OFFSET -1.142200 -1.059800 6.665200
						CHANNELS 3 Xrotation Yrotation Zrotation
						End Site
						{
							OFFSET 0.000000 12.319243 0.000000
						}
					}
				}
				JOINT RightPantLeg
				{
					OFFSET -0.919482 -16.533978 -2.284800
					CHANNELS 3 Xrotation Yrotation Zrotation
					End Site
					{
						OFFSET -0.350400 24.744419 0.000000
					}
				}
			}
		}
	}
	JOINT Spine
	{
		OFFSET 0.000000 7.722000 1.166200
		CHANNELS 3 Xrotation Yrotation Zrotation
		JOINT Spine1
		{
			OFFSET 0.000000 12.024101 0.248800
			CHANNELS 3 Xrotation Yrotation Zrotation
			JOINT Spine2
			{
				OFFSET 0.000000 11.502998 -0.491200
				CHANNELS 3 Xrotation Yrotation Zrotation
				JOINT Neck
				{
					OFFSET 0.000000 18.430702 -3.123100
					CHANNELS 3 Xrotation Yrotation Zrotation
					JOINT Head
					{
						OFFSET 0.000000 9.051102 1.034000
						CHANNELS 3 Xrotation Yrotation Zrotation
						JOINT HairB
						{
							OFFSET 0.208400 24.786102 24.822300
							CHANNELS 3 Xrotation Yrotation Zrotation
							End Site
							{
								OFFSET 0.000000 32.263779 0.000000
							}
						}
						JOINT HairA
						{
							OFFSET -7.081100 24.428299 23.196600
							CHANNELS 3 Xrotation Yrotation Zrotation
							End Site
							{
								OFFSET 0.000000 32.263779 0.000000
							}
						}
						JOINT Hat
						{
							OFFSET 16.728800 15.048294 -15.439601
							CHANNELS 3 Xrotation Yrotation Zrotation
							End Site
							{
								OFFSET 0.000000 32.263779 0.000000
							}
						}
					}
				}
				JOINT LeftShoulder
				{
					OFFSET 6.197800 13.665199 -4.064700
					CHANNELS 3 Xrotation Yrotation Zrotation
					JOINT LeftArm
					{
						OFFSET 7.778100 -0.187103 -1.709300
						CHANNELS 3 Xrotation Yrotation Zrotation
						JOINT LeftForeArm
						{
							OFFSET 22.049376 0.000000 0.000000
							CHANNELS 3 Xrotation Yrotation Zrotation
							JOINT LeftHand
							{
								OFFSET 23.009392 0.000000 0.000000
								CHANNELS 3 Xrotation Yrotation Zrotation
								JOINT LeftHandThumb1
								{
									OFFSET 3.507191 -2.063065 3.133727
									CHANNELS 3 Xrotation Yrotation Zrotation
									JOINT LeftHandThumb2
									{
										OFFSET 3.101337 -1.790558 1.790558
										CHANNELS 3 Xrotation Yrotation Zrotation
										JOINT LeftHandThumb3
										{
											OFFSET 3.058640 -1.765907 1.765906
											CHANNELS 3 Xrotation Yrotation Zrotation
											End Site
											{
												OFFSET -0.415260 3.926476 -0.049563
											}
										}
									}
								}
								JOINT LeftHandIndex1
								{
									OFFSET 11.334419 -0.901459 3.706815
									CHANNELS 3 Xrotation Yrotation Zrotation
									JOINT LeftHandIndex2
									{
										OFFSET 3.283112 0.000000 0.000000
										CHANNELS 3 Xrotation Yrotation Zrotation
										JOINT LeftHandIndex3
										{
											OFFSET 3.323853 0.000000 0.000000
											CHANNELS 3 Xrotation Yrotation Zrotation
											End Site
											{
												OFFSET -1.135597 3.097809 0.402452
											}
										}
									}
								}
								JOINT LeftHandMiddle1
								{
									OFFSET 11.335861 0.000000 0.000000
									CHANNELS 3 Xrotation Yrotation Zrotation
									JOINT LeftHandMiddle2
									{
										OFFSET 3.410492 0.000000 0.000000
										CHANNELS 3 Xrotation Yrotation Zrotation
										JOINT LeftHandMiddle3
										{
											OFFSET 3.312172 0.000000 0.000000
											CHANNELS 3 Xrotation Yrotation Zrotation
											End Site
											{
												OFFSET -1.150200 3.080154 0.400270
											}
										}
									}
								}
								JOINT LeftHandRing1
								{
									OFFSET 11.514786 -0.013176 -3.003090
									CHANNELS 3 Xrotation Yrotation Zrotation
									JOINT LeftHandRing2
									{
										OFFSET 3.053307 0.000000 0.000000
										CHANNELS 3 Xrotation Yrotation Zrotation
										JOINT LeftHandRing3
										{
											OFFSET 3.295807 0.000000 0.000000
											CHANNELS 3 Xrotation Yrotation Zrotation
											End Site
											{
												OFFSET -1.281006 3.013344 0.375733
											}
										}
									}
								}
								JOINT LeftHandPinky1
								{
									OFFSET 10.518692 -0.960396 -5.730441
									CHANNELS 3 Xrotation Yrotation Zrotation
									JOINT LeftHandPinky2
									{
										OFFSET 2.861649 0.000000 0.000000
										CHANNELS 3 Xrotation Yrotation Zrotation
										JOINT LeftHandPinky3
										{
											OFFSET 2.863380 0.000000 0.000000
											CHANNELS 3 Xrotation Yrotation Zrotation
											End Site
											{
												OFFSET -0.843597 2.711159 0.369971
											}
										}
									}
								}
							}
							JOINT LSleeve
							{
								OFFSET 6.676277 -0.344902 -1.011730
								CHANNELS 3 Xrotation Yrotation Zrotation
								End Site
								{
									OFFSET 0.000000 14.885353 0.000000
								}
							}
						}
					}
				}
				JOINT RightShoulder
				{
					OFFSET -6.197800 13.665199 -4.064700
					CHANNELS 3 Xrotation Yrotation Zrotation
					JOINT RightArm
					{
						OFFSET -7.778100 -0.187103 -1.709300
						CHANNELS 3 Xrotation Yrotation Zrotation
						JOINT RightForeArm
						{
							OFFSET -22.049376 0.000000 0.000000
							CHANNELS 3 Xrotation Yrotation Zrotation
							JOINT RightHand
							{
								OFFSET -23.009392 0.000000 0.000000
								CHANNELS 3 Xrotation Yrotation Zrotation
								JOINT RightHandThumb1
								{
									OFFSET -3.507191 -2.063065 3.133727
									CHANNELS 3 Xrotation Yrotation Zrotation
									JOINT RightHandThumb2
									{
										OFFSET -3.101337 -1.790558 1.790558
										CHANNELS 3 Xrotation Yrotation Zrotation
										JOINT RightHandThumb3
										{
											OFFSET -3.058640 -1.765907 1.765906
											CHANNELS 3 Xrotation Yrotation Zrotation
											End Site
											{
												OFFSET 0.415260 3.926476 -0.049563
											}
										}
									}
								}
								JOINT RightHandIndex1
								{
									OFFSET -11.334419 -0.901459 3.706815
									CHANNELS 3 Xrotation Yrotation Zrotation
									JOINT RightHandIndex2
									{
										OFFSET -3.283112 0.000000 0.000000
										CHANNELS 3 Xrotation Yrotation Zrotation
										JOINT RightHandIndex3
										{
											OFFSET -3.323853 0.000000 0.000000
											CHANNELS 3 Xrotation Yrotation Zrotation
											End Site
											{
												OFFSET 1.135597 3.097809 0.402452
											}
										}
									}
								}
								JOINT RightHandMiddle1
								{
									OFFSET -11.335861 0.000000 0.000000
									CHANNELS 3 Xrotation Yrotation Zrotation
									JOINT RightHandMiddle2
									{
										OFFSET -3.410492 0.000000 0.000000
										CHANNELS 3 Xrotation Yrotation Zrotation
										JOINT RightHandMiddle3
										{
											OFFSET -3.312172 0.000000 0.000000
											CHANNELS 3 Xrotation Yrotation Zrotation
											End Site
											{
												OFFSET 1.150200 3.080154 0.400270
											}
										}
									}
								}
								JOINT RightHandRing1
								{
									OFFSET -11.514786 -0.013176 -3.003090
									CHANNELS 3 Xrotation Yrotation Zrotation
									JOINT RightHandRing2
									{
										OFFSET -3.053307 0.000000 0.000000
										CHANNELS 3 Xrotation Yrotation Zrotation
										JOINT RightHandRing3
										{
											OFFSET -3.295807 0.000000 0.000000
											CHANNELS 3 Xrotation Yrotation Zrotation
											End Site
											{
												OFFSET 1.281006 3.013344 0.375733
											}
										}
									}
								}
								JOINT RightHandPinky1
								{
									OFFSET -10.518692 -0.960396 -5.730441
									CHANNELS 3 Xrotation Yrotation Zrotation
									JOINT RightHandPinky2
									{
										OFFSET -2.861649 0.000000 0.000000
										CHANNELS 3 Xrotation Yrotation Zrotation
										JOINT RightHandPinky3
										{
											OFFSET -2.863380 0.000000 0.000000
											CHANNELS 3 Xrotation Yrotation Zrotation
											End Site
											{
												OFFSET 0.843597 2.711159 0.369971
											}
										}
									}
								}
							}
							JOINT RSleeve
							{
								OFFSET -6.676277 -0.344902 -1.011730
								CHANNELS 3 Xrotation Yrotation Zrotation
								End Site
								{
									OFFSET 0.000000 14.885353 0.000000
								}
							}
						}
					}
				}
				JOINT Backpack
				{
					OFFSET 0.000000 -2.471497 36.677502
					CHANNELS 3 Xrotation Yrotation Zrotation
					End Site
					{
						OFFSET 0.000000 20.427315 0.000000
					}
				}
				JOINT Hood
				{
					OFFSET 0.000000 18.754097 -10.431000
					CHANNELS 3 Xrotation Yrotation Zrotation
					JOINT Hood1
					{
						OFFSET 0.000000 -5.011002 -7.685901
						CHANNELS 3 Xrotation Yrotation Zrotation
						End Site
						{
							OFFSET 0.000000 9.175140 0.000000
						}
					}
				}
				JOINT LHoodieString
				{
					OFFSET 5.250500 16.397697 3.089900
					CHANNELS 3 Xrotation Yrotation Zrotation
					JOINT LHoodieString1
					{
						OFFSET 0.257700 -6.364304 3.694600
						CHANNELS 3 Xrotation Yrotation Zrotation
						JOINT LHoodieString2
						{
							OFFSET 0.000000 -9.643799 2.679100
							CHANNELS 3 Xrotation Yrotation Zrotation
							End Site
							{
								OFFSET 0.000000 10.009018 0.000000
							}
						}
					}
				}
				JOINT RHoodieString
				{
					OFFSET -5.250500 16.397697 3.089900
					CHANNELS 3 Xrotation Yrotation Zrotation
					JOINT RHoodieString1
					{
						OFFSET -0.257700 -6.364304 3.694600
						CHANNELS 3 Xrotation Yrotation Zrotation
						JOINT RHoodieString2
						{
							OFFSET 0.000000 -9.643799 2.679100
							CHANNELS 3 Xrotation Yrotation Zrotation
							End Site
							{
								OFFSET 0.000000 10.009018 0.000000
							}
						}
					}
				}
			}
			JOINT LBackpack_Strap
			{
				OFFSET 15.223200 -7.719803 -6.610900
				CHANNELS 3 Xrotation Yrotation Zrotation
				End Site
				{
					OFFSET 0.000000 16.040596 0.000000
				}
			}
			JOINT RBackpack_Strap
			{
				OFFSET -15.223000 -7.719803 -6.610900
				CHANNELS 3 Xrotation Yrotation Zrotation
				End Site
				{
					OFFSET 0.000000 16.040596 0.000000
				}
			}
		}
	}
	JOINT BoyFacialAnim_Joint
	{
		OFFSET 1.000000 -82.208099 -1.550900
		CHANNELS 3 Xrotation Yrotation Zrotation
		End Site
		{
			OFFSET 0.000000 30.012791 0.000000
		}
	}
}
MOTION
Frames: 4
Frame Time: 0.033333
-1.177684 74.839699 0.746932 7.035672 -32.834297 -1.405274 -0.000000 -0.000002 -0.000000 -38.739798 -1.008502 28.067088 34.378084 -0.457929 0.042737 0.578304 0.738455 -18.840821 0.000000 0.000000 -0.000000 0.000000 0.000000 0.000000 0.000000 -0.000002 -0.000001 -27.765081 -5.291371 -17.793831 34.332079 9.732818 0.630696 -15.072950 3.892434 16.977970 0.000000 -0.000000 0.000000 0.000000 -0.000000 0.000000 0.000000 -0.000003 -0.000000 1.312527 2.589170 3.496453 3.660049 5.927391 2.735059 3.752256 5.987800 2.470390 9.421017 3.022372 -0.033998 -9.044379 21.823914 -11.122993 -0.000000 0.000001 -0.000000 -0.000000 0.000001 -0.000000 -0.000000 0.000001 -0.000000 1.579941 -19.099104 -2.661022 -66.590185 10.875430 -14.760292 0.000001 -137.581006 -0.000001 -41.814019 11.792438 -0.769784 16.105970 -0.106272 -18.050634 98.343584 38.949191 -65.310474 0.000001 0.000001 0.000002 8.023200 6.786242 -99.575463 6.995756 6.880257 -90.956188 -0.000001 -0.000000 -0.000004 8.021276 6.786558 -99.559283 6.997704 6.880220 -90.972396 0.000001 -0.000001 0.000004 8.023184 6.786217 -99.575477 6.995747 6.880253 -90.956188 0.000001 0.000002 -0.000002 12.046785 6.113533 -99.517222 6.996831 2.794002 -90.968790 -0.000001 0.000002 -0.000002 -0.000000 0.000000 -0.000000 1.534281 17.113831 1.863925 -48.530202 17.066368 62.649446 0.000046 111.975521 -0.000029 -10.116757 -1.908181 -5.272970 15.852886 -16.537520 23.644365 37.660676 -67.878598 8.692250 -0.000000 0.000003 0.000003 7.291095 -6.939820 92.835262 8.879202 -6.675797 106.172914 -0.000000 -0.000000 -0.000000 7.291084 -6.939820 92.835262 8.879202 -6.675782 106.172934 0.000001 -0.000002 -0.000002 7.291079 -6.939790 92.835248 8.879181 -6.675791 106.172914 0.000001 -0.000003 -0.000000 7.291075 -6.939782 92.835248 8.879225 -6.675803 106.172914 -0.000001 0.000003 0.000003 0.000001 0.000001 -0.000001 -0.000001 0.000001 -0.000000 -0.000001 0.000001 -0.000000 -0.000001 0.000001 -0.000000 -0.000001 0.000001 -0.000000 -0.000001 0.000001 -0.000001 -0.000001 0.000001 -0.000000 -0.000001 0.000001 -0.000000 -0.000001 0.000001 -0.000001 -0.000001 0.000001 -0.000000 -0.000000 0.000000 -0.000000 -0.000000 0.000000 -0.000000 -0.000000 -0.000002 -0.000000 
-1.279227 75.027603 0.992585 6.134850 -32.962698 -1.543628 -0.000000 -0.000002 0.000000 -37.244963 -0.637169 27.713055 33.778554 -0.104190 0.083588 0.506007 0.755379 -18.909000 0.000000 0.000002 -0.000000 0.000000 0.000002 -0.000000 0.000000 -0.000001 0.000001 -26.501313 -5.440191 -18.196365 33.570755 9.752754 0.691222 -14.965680 4.204771 17.046342 0.000000 -0.000003 -0.000000 0.000000 -0.000003 -0.000000 -0.000002 -0.000000 -0.000002 1.469669 2.528061 3.244985 3.782814 5.701518 2.455310 3.834880 5.759887 2.223642 9.014583 3.464521 -0.443201 -8.297079 22.894401 -9.687297 0.000000 0.000000 -0.000000 0.000000 0.000000 -0.000000 0.000000 0.000000 -0.000000 1.633959 -18.911764 -2.170602 -66.457980 10.667095 -14.380608 0.000013 -137.484495 0.000025 -42.916869 12.479933 -0.744115 16.105969 -0.106273 -18.050636 98.343584 38.949191 -65.310460 0.000000 0.000002 0.000002 8.023196 6.786243 -99.575470 6.995758 6.880259 -90.956181 -0.000001 -0.000001 -0.000005 8.021273 6.786560 -99.559283 6.997701 6.880216 -90.972396 0.000002 -0.000002 0.000003 8.023183 6.786216 -99.575477 6.995745 6.880251 -90.956188 0.000000 -0.000003 0.000001 12.046782 6.113535 -99.517229 6.996833 2.794003 -90.968797 -0.000000 0.000000 -0.000002 -0.000001 -0.000001 0.000000 1.542203 17.106767 1.796926 -48.207035 17.518691 62.579628 0.000077 112.203042 -0.000086 -9.876866 -1.874605 -5.361640 15.852883 -16.537520 23.644365 37.660680 -67.878598 8.692259 -0.000002 -0.000001 0.000001 7.291095 -6.939821 92.835255 8.879205 -6.675798 106.172921 -0.000001 -0.000000 0.000002 7.291082 -6.939820 92.835262 8.879201 -6.675781 106.172927 0.000000 0.000002 0.000000 7.291079 -6.939789 92.835248 8.879188 -6.675792 106.172914 -0.000000 -0.000001 0.000002 7.291074 -6.939784 92.835248 8.879217 -6.675803 106.172914 0.000002 0.000001 0.000000 -0.000000 -0.000000 0.000002 0.000001 -0.000002 0.000000 0.000001 -0.000002 0.000000 0.000001 -0.000002 0.000000 0.000001 -0.000002 0.000000 0.000001 -0.000002 -0.000000 0.000001 0.000000 -0.000000 0.000001 -0.000002 0.000000 0.000001 -0.000002 -0.000000 0.000001 0.000000 -0.000000 0.000000 -0.000000 -0.000000 0.000000 -0.000000 -0.000000 -0.000000 -0.000002 0.000000 
-1.279227 75.027603 0.992585 6.134850 -32.962698 -1.543628 -0.000000 -0.000002 0.000000 -37.244963 -0.637169 27.713055 33.778554 -0.104190 0.083588 0.506007 0.755379 -18.909000 0.000000 0.000002 -0.000000 0.000000 0.000002 -0.000000 0.000000 -0.000001 0.000001 -26.501313 -5.440191 -18.196365 33.570755 9.752754 0.691222 -14.965680 4.204771 17.046342 0.000000 -0.000003 -0.000000 0.000000 -0.000003 -0.000000 -0.000002 -0.000000 -0.000002 1.469669 2.528061 3.244985 3.782814 5.701518 2.455310 3.834880 5.759887 2.223642 9.014583 3.464521 -0.443201 -8.297079 22.894401 -9.687297 0.000000 0.000000 -0.000000 0.000000 0.000000 -0.000000 0.000000 0.000000 -0.000000 1.633959 -18.911764 -2.170602 -66.457980 10.667095 -14.380608 0.000013 -137.484495 0.000025 -42.916869 12.479933 -0.744115 16.105969 -0.106273 -18.050636 98.343584 38.949191 -65.310460 0.000000 0.000002 0.000002 8.023196 6.786243 -99.575470 6.995758 6.880259 -90.956181 -0.000001 -0.000001 -0.000005 8.021273 6.786560 -99.559283 6.997701 6.880216 -90.972396 0.000002 -0.000002 0.000003 8.023183 6.786216 -99.575477 6.995745 6.880251 -90.956188 0.000000 -0.000003 0.000001 12.046782 6.113535 -99.517229 6.996833 2.794003 -90.968797 -0.000000 0.000000 -0.000002 -0.000001 -0.000001 0.000000 1.542203 17.106767 1.796926 -48.207035 17.518691 62.579628 0.000077 112.203042 -0.000086 -9.876866 -1.874605 -5.361640 15.852883 -16.537520 23.644365 37.660680 -67.878598 8.692259 -0.000002 -0.000001 0.000001 7.291095 -6.939821 92.835255 8.879205 -6.675798 106.172921 -0.000001 -0.000000 0.000002 7.291082 -6.939820 92.835262 8.879201 -6.675781 106.172927 0.000000 0.000002 0.000000 7.291079 -6.939789 92.835248 8.879188 -6.675792 106.172914 -0.000000 -0.000001 0.000002 7.291074 -6.939784 92.835248 8.879217 -6.675803 106.172914 0.000002 0.000001 0.000000 -0.000000 -0.000000 0.000002 0.000001 -0.000002 0.000000 0.000001 -0.000002 0.000000 0.000001 -0.000002 0.000000 0.000001 -0.000002 0.000000 0.000001 -0.000002 -0.000000 0.000001 0.000000 -0.000000 0.000001 -0.000002 0.000000 0.000001 -0.000002 -0.000000 0.000001 0.000000 -0.000000 0.000000 -0.000000 -0.000000 0.000000 -0.000000 -0.000000 -0.000000 -0.000002 0.000000 
-1.279227 75.027603 0.992585 6.134850 -32.962698 -1.543628 -0.000000 -0.000002 0.000000 -37.244963 -0.637169 27.713055 33.778554 -0.104190 0.083588 0.506007 0.755379 -18.909000 0.000000 0.000002 -0.000000 0.000000 0.000002 -0.000000 0.000000 -0.000001 0.000001 -26.501313 -5.440191 -18.196365 33.570755 9.752754 0.691222 -14.965680 4.204771 17.046342 0.000000 -0.000003 -0.000000 0.000000 -0.000003 -0.000000 -0.000002 -0.000000 -0.000002 1.469669 2.528061 3.244985 3.782814 5.701518 2.455310 3.834880 5.759887 2.223642 9.014583 3.464521 -0.443201 -8.297079 22.894401 -9.687297 0.000000 0.000000 -0.000000 0.000000 0.000000 -0.000000 0.000000 0.000000 -0.000000 1.633959 -18.911764 -2.170602 -66.457980 10.667095 -14.380608 0.000013 -137.484495 0.000025 -42.916869 12.479933 -0.744115 16.105969 -0.106273 -18.050636 98.343584 38.949191 -65.310460 0.000000 0.000002 0.000002 8.023196 6.786243 -99.575470 6.995758 6.880259 -90.956181 -0.000001 -0.000001 -0.000005 8.021273 6.786560 -99.559283 6.997701 6.880216 -90.972396 0.000002 -0.000002 0.000003 8.023183 6.786216 -99.575477 6.995745 6.880251 -90.956188 0.000000 -0.000003 0.000001 12.046782 6.113535 -99.517229 6.996833 2.794003 -90.968797 -0.000000 0.000000 -0.000002 -0.000001 -0.000001 0.000000 1.542203 17.106767 1.796926 -48.207035 17.518691 62.579628 0.000077 112.203042 -0.000086 -9.876866 -1.874605 -5.361640 15.852883 -16.537520 23.644365 37.660680 -67.878598 8.692259 -0.000002 -0.000001 0.000001 7.291095 -6.939821 92.835255 8.879205 -6.675798 106.172921 -0.000001 -0.000000 0.000002 7.291082 -6.939820 92.835262 8.879201 -6.675781 106.172927 0.000000 0.000002 0.000000 7.291079 -6.939789 92.835248 8.879188 -6.675792 106.172914 -0.000000 -0.000001 0.000002 7.291074 -6.939784 92.835248 8.879217 -6.675803 106.172914 0.000002 0.000001 0.000000 -0.000000 -0.000000 0.000002 0.000001 -0.000002 0.000000 0.000001 -0.000002 0.000000 0.000001 -0.000002 0.000000 0.000001 -0.000002 0.000000 0.000001 -0.000002 -0.000000 0.000001 0.000000 -0.000000 0.000001 -0.000002 0.000000 0.000001 -0.000002 -0.000000 0.000001 0.000000 -0.000000 0.000000 -0.000000 -0.000000 0.000000 -0.000000 -0.000000 -0.000000 -0.000002 0.000000 
